<svg data-v-52eae0c4="" version="1.1" id="Layer_1" xmlns="http://www.w3.org/2000/svg" xmlns:xlink="http://www.w3.org/1999/xlink" x="0px" y="0px" width="408.371px" height="277.101px" viewBox="0 0 408.371 277.101" enable-background="new 0 0 408.371 277.101" xml:space="preserve"><g data-v-52eae0c4="" id="Group_13946" transform="translate(-3.751 -3.751)"><path data-v-52eae0c4="" id="end" fill="none" stroke="#FDB21D" stroke-width="1.5" d="M399.566,279.727H16.306
		c-6.31-0.009-11.422-5.122-11.43-11.432V16.308c0.007-6.31,5.12-11.423,11.43-11.43h383.26c6.311,0.007,11.424,5.121,11.43,11.432
		v251.987c-0.008,6.31-5.12,11.423-11.43,11.432V279.727z" style="stroke-dashoffset: 6.64578; stroke-dasharray: 1343.3, 1353.3;"></path> <path data-v-52eae0c4="" id="end" fill="none" stroke="#FDB21D" stroke-width="1.5" d="M25.86,11.019h344.575c7.18,0,13,5.82,13,13v235.382
		c0,7.18-5.82,13-13,13H25.86c-7.18,0-13-5.82-13-13V24.019C12.86,16.839,18.68,11.019,25.86,11.019z" style="stroke-dashoffset: 6.14328; stroke-dasharray: 1242.61, 1252.61;"></path> <path data-v-52eae0c4="" id="end" fill="none" stroke="#FDB21D" stroke-width="1.5" d="M398.175,140.763h0.069c4.712,0,8.532,3.82,8.532,8.531
		l0,0c0,4.712-3.82,8.532-8.532,8.532h-0.069c-4.712,0-8.532-3.82-8.532-8.532l0,0C389.643,144.583,393.463,140.763,398.175,140.763
		z" style="stroke-dashoffset: 0.270706; stroke-dasharray: 54.7521, 64.7521;"></path></g></svg>